<svg id="Capa_1" enable-background="new 0 0 512 512" height="512" viewBox="0 0 512 512" width="512" xmlns="http://www.w3.org/2000/svg"><g><path d="m362.594 51.102v70.145h-38.929v-36.776c0-11.545-8.919-20.999-20.237-21.854v-31.288c0-7.549-2.667-14.47-7.116-19.877l10-.01h16.622c21.905 0 39.66 17.755 39.66 39.66z" fill="#4a80aa"/><path d="m323.364 103.653h25.81c11.886 0 21.522 9.636 21.522 21.522v16.127c0 11.886-9.636 21.522-21.522 21.522h-25.81z" fill="#ffcebf"/><path d="m411.462 350.282 10.299 47.601v38.692h-331.188v-38.692l10.299-47.601c0-18.167 1.246-24.017 18.425-29.897l91.711-31.37v-85.562h90.32v85.562l91.711 31.37c17.177 5.88 18.423 11.73 18.423 29.897z" fill="#ffcebf"/><path d="m421.761 350.282v47.601h-64.635v8.393c-.021.031-.031.062-.052.093l-10.515 21.308c-.752 1.524-2.204 2.575-3.883 2.812l-23.502 3.419c-.062.01-.103.031-.154.031-.752-.824-1.792-1.432-3.059-1.617l-35.448-5.149c-1.679-.247-3.131-1.298-3.872-2.812l-15.86-32.122c-1.885-3.831-7.343-3.831-9.228 0l-15.86 32.122c-.741 1.514-2.194 2.564-3.872 2.812l-35.448 5.149c-1.267.185-2.307.793-3.059 1.617-.052 0-.093-.021-.154-.031l-23.502-3.419c-1.679-.237-3.131-1.287-3.883-2.812l-10.515-21.308c-.021-.031-.031-.062-.052-.093v-8.393h-64.635v-47.601c0-18.167 11.545-34.315 28.723-40.196l46.561-15.922 12.812.896 4.408-6.787 27.93-9.557c13.584 9.423 29.372 14.13 45.16 14.13s31.576-4.706 45.16-14.13l27.93 9.557 4.406 7.302 13.669-1.123 45.706 15.634c17.178 5.88 28.723 22.029 28.723 40.196z" fill="#bbec6c"/><path d="m211.007 278.716c3.687 2.554 7.539 4.768 11.514 6.632l-72.328 24.738c-17.178 5.881-28.723 22.029-28.723 40.196v47.601h-30.897v-47.601c0-18.167 11.545-34.315 28.723-40.196l46.559-15.926 12.813.9 4.407-6.79z" fill="#a2e62e"/><g><g><path d="m155.208 414c-4.266 0-7.724-3.458-7.724-7.724v-29.805c0-4.266 3.458-7.724 7.724-7.724s7.724 3.458 7.724 7.724v29.805c0 4.266-3.458 7.724-7.724 7.724z" fill="#a2e62e"/></g></g><g><g><path d="m357.126 414c-4.266 0-7.724-3.458-7.724-7.724v-35.984c0-4.266 3.458-7.724 7.724-7.724s7.724 3.458 7.724 7.724v35.984c0 4.266-3.458 7.724-7.724 7.724z" fill="#a2e62e"/></g></g><path d="m66.37 406.373 10.514 21.303c.75 1.52 2.2 2.573 3.877 2.817l23.509 3.416c4.224.614 5.91 5.804 2.854 8.783l-17.012 16.582c-1.214 1.183-1.767 2.887-1.481 4.558l4.016 23.414c.721 4.207-3.694 7.414-7.471 5.428l-21.027-11.055c-1.5-.789-3.292-.789-4.792 0l-21.027 11.055c-3.778 1.986-8.193-1.222-7.471-5.428l4.016-23.414c.287-1.67-.267-3.375-1.481-4.558l-17.014-16.581c-3.056-2.979-1.37-8.17 2.854-8.783l23.509-3.416c1.677-.244 3.127-1.297 3.877-2.817l10.514-21.303c1.889-3.828 7.347-3.828 9.236-.001z" fill="#fed402"/><path d="m76.757 427.41-.14.27c-.75 1.52-2.2 2.57-3.87 2.81l-23.51 3.42c-4.23.61-5.91 5.8-2.86 8.78l17.02 16.58c1.21 1.19 1.76 2.89 1.48 4.56l-2.95 17.21c-.88-.04-1.77.16-2.57.58l-21.03 11.06c-3.78 1.98-8.19-1.23-7.47-5.43l4.02-23.42c.28-1.67-.27-3.37-1.48-4.56l-17.02-16.58c-3.05-2.98-1.37-8.17 2.86-8.78l23.51-3.42c1.67-.24 3.12-1.29 3.87-2.81l10.52-21.31c1.89-3.82 7.34-3.82 9.23 0z" fill="#fac600"/><path d="m454.866 406.373 10.514 21.303c.75 1.52 2.2 2.573 3.877 2.817l23.509 3.416c4.224.614 5.91 5.804 2.854 8.783l-17.012 16.582c-1.214 1.183-1.767 2.887-1.481 4.558l4.016 23.414c.721 4.207-3.694 7.414-7.471 5.428l-21.027-11.055c-1.5-.789-3.292-.789-4.792 0l-21.027 11.055c-3.778 1.986-8.193-1.222-7.471-5.428l4.016-23.414c.286-1.67-.267-3.375-1.481-4.558l-17.012-16.582c-3.056-2.979-1.37-8.17 2.854-8.783l23.509-3.416c1.677-.244 3.127-1.297 3.877-2.817l10.514-21.303c1.888-3.827 7.345-3.827 9.234 0z" fill="#fed402"/><path d="m465.254 427.41-.14.27c-.75 1.52-2.2 2.57-3.87 2.81l-23.51 3.42c-4.23.61-5.91 5.8-2.86 8.78l17.01 16.58c1.22 1.19 1.77 2.89 1.49 4.56l-2.95 17.21c-.88-.04-1.77.16-2.57.58l-21.03 11.06c-3.78 1.98-8.19-1.23-7.47-5.43l4.02-23.42c.28-1.67-.27-3.37-1.49-4.56l-17.01-16.58c-3.05-2.98-1.37-8.17 2.86-8.78l23.51-3.42c1.67-.24 3.12-1.29 3.87-2.81l10.52-21.31c1.89-3.82 7.34-3.82 9.23 0z" fill="#fac600"/><path d="m347.332 294.452c-23.306 21.123-56.046 34.254-83.441 35.943v24.398c0 4.264-3.46 7.724-7.724 7.724s-7.724-3.46-7.724-7.724v-24.398c-29.135-2.173-57.271-11.576-82.586-36.231l17.22-5.891c43.646 35.284 102.576 35.253 146.181 0z" fill="#f2fbff"/><path d="m260.785 392.237 15.852 32.119c.75 1.52 2.2 2.573 3.877 2.817l35.446 5.151c4.224.614 5.91 5.804 2.854 8.783l-25.649 25.001c-1.214 1.183-1.767 2.887-1.481 4.558l6.055 35.303c.721 4.207-3.694 7.414-7.471 5.428l-31.704-16.668c-1.5-.789-3.292-.789-4.792 0l-31.704 16.668c-3.778 1.986-8.193-1.222-7.471-5.428l6.055-35.303c.286-1.67-.267-3.375-1.481-4.558l-25.649-25.001c-3.056-2.979-1.37-8.17 2.854-8.783l35.446-5.151c1.677-.244 3.127-1.297 3.877-2.817l15.852-32.119c1.887-3.827 7.345-3.827 9.234 0z" fill="#fee97d"/><path d="m270.668 466.112c1.205 1.184 1.761 2.884 1.473 4.552l-4.913 28.62-8.661-4.552c-1.504-.793-3.296-.793-4.799 0l-31.7 16.663c-3.78 1.988-8.198-1.215-7.477-5.427l6.056-35.304c.288-1.668-.268-3.368-1.473-4.552l-25.654-25.005c-3.059-2.977-1.37-8.167 2.853-8.785l35.448-5.149c1.679-.247 3.131-1.298 3.872-2.812l15.86-32.122c1.885-3.831 7.343-3.831 9.228 0l15.86 32.122c.741 1.514 2.194 2.564 3.872 2.812l1.401.206-34.048 4.943c-4.222.618-5.911 5.808-2.853 8.785z" fill="#fee45a"/><path d="m366.306 406.373 10.514 21.303c.75 1.52 2.2 2.573 3.877 2.817l23.509 3.416c4.224.614 5.91 5.804 2.854 8.783l-17.012 16.582c-1.214 1.183-1.767 2.887-1.481 4.558l4.016 23.414c.721 4.207-3.694 7.414-7.471 5.428l-21.027-11.055c-1.5-.789-3.292-.789-4.792 0l-21.027 11.055c-3.778 1.986-8.193-1.222-7.471-5.428l4.016-23.414c.286-1.67-.267-3.375-1.481-4.558l-17.012-16.582c-3.056-2.979-1.37-8.17 2.854-8.783l23.509-3.416c1.677-.244 3.127-1.297 3.877-2.817l10.514-21.303c1.887-3.827 7.345-3.827 9.234 0z" fill="#fed402"/><path d="m376.687 427.42-.13.26c-.75 1.52-2.2 2.57-3.88 2.81l-23.51 3.42c-4.22.61-5.91 5.8-2.85 8.78l17.01 16.58c1.21 1.19 1.77 2.89 1.48 4.56l-2.95 17.21c-.88-.04-1.77.16-2.57.58l-21.02 11.06c-3.78 1.98-8.2-1.23-7.47-5.43l4.01-23.42c.29-1.67-.27-3.37-1.48-4.56l-17.01-16.58c-3.06-2.98-1.37-8.17 2.85-8.78l23.51-3.42c1.68-.24 3.13-1.29 3.88-2.81l10.51-21.31c1.89-3.82 7.35-3.82 9.24 0z" fill="#fac600"/><path d="m155.264 406.373 10.514 21.303c.75 1.52 2.2 2.573 3.877 2.817l23.509 3.416c4.224.614 5.91 5.804 2.854 8.783l-17.012 16.582c-1.214 1.183-1.767 2.887-1.481 4.558l4.016 23.414c.721 4.207-3.694 7.414-7.471 5.428l-21.027-11.055c-1.5-.789-3.292-.789-4.792 0l-21.027 11.055c-3.778 1.986-8.193-1.222-7.471-5.428l4.016-23.414c.286-1.67-.267-3.375-1.481-4.558l-17.012-16.582c-3.056-2.979-1.37-8.17 2.854-8.783l23.509-3.416c1.677-.244 3.127-1.297 3.877-2.817l10.514-21.303c1.887-3.827 7.345-3.827 9.234 0z" fill="#fed402"/><path d="m165.647 427.42-.13.26c-.75 1.52-2.2 2.57-3.88 2.81l-23.51 3.42c-4.22.61-5.91 5.8-2.85 8.78l17.01 16.58c1.21 1.19 1.77 2.89 1.48 4.56l-2.95 17.21c-.88-.04-1.77.16-2.57.58l-21.02 11.06c-3.78 1.98-8.2-1.23-7.48-5.43l4.02-23.42c.29-1.67-.27-3.37-1.48-4.56l-17.01-16.58c-3.06-2.98-1.37-8.17 2.85-8.78l23.51-3.42c1.68-.24 3.13-1.29 3.88-2.81l10.51-21.31c1.89-3.82 7.35-3.82 9.24 0z" fill="#fac600"/><path d="m178.671 84.469v19.184l-10.299 7.059v45.603l10.299 6.508v15.685c0 39.533 32.048 71.58 71.58 71.58h11.832c39.533 0 71.58-32.048 71.58-71.58v-94.039c0-12.106-9.814-21.921-21.921-21.921h-111.15c-12.107 0-21.921 9.814-21.921 21.921z" fill="#ffeee6"/><path d="m271.615 249.446c-3.121.422-6.303.639-9.537.639h-11.823c-39.537 0-71.587-32.04-71.587-71.576v-94.038c0-12.111 9.815-21.926 21.926-21.926h30.896c-12.111 0-21.926 9.815-21.926 21.926v94.038c.001 36.303 27.025 66.282 62.051 70.937z" fill="#ffdfcf"/><path d="m178.671 121.244h-29.256v-71.049c0-27.721 22.472-50.193 50.193-50.193h82.498c17.301 0 31.325 14.025 31.325 31.325v31.221c0 8.697-7.05 15.747-15.747 15.747h-77.754c4.626-5.762.524-14.316-6.866-14.316h-14.23c-11.136 0-20.163 9.027-20.163 20.163z" fill="#5892ba"/><path d="m230.502 0c-27.714 0-50.196 22.472-50.196 50.196v25.984c-1.05 2.441-1.638 5.139-1.638 7.961v37.106h-29.258v-71.051c0-27.724 22.482-50.196 50.196-50.196z" fill="#4a80aa"/><path d="m178.671 103.653h-15.511c-11.886 0-21.522 9.636-21.522 21.522v16.127c0 11.886 9.636 21.522 21.522 21.522h15.511z" fill="#ffcebf"/><g><g><path d="m237.872 114.899h-30.109c-4.266 0-7.724-3.458-7.724-7.724s3.458-7.724 7.724-7.724h30.109c4.266 0 7.724 3.458 7.724 7.724 0 4.265-3.458 7.724-7.724 7.724z" fill="#4a80aa"/><g><path d="m222.817 150.843c-4.266 0-7.724-3.458-7.724-7.724v-10.138c0-4.266 3.458-7.724 7.724-7.724s7.724 3.458 7.724 7.724v10.138c0 4.266-3.458 7.724-7.724 7.724z" fill="#4a80aa"/></g><path d="m304.419 114.899h-30.109c-4.266 0-7.724-3.458-7.724-7.724s3.458-7.724 7.724-7.724h30.109c4.266 0 7.724 3.458 7.724 7.724 0 4.265-3.457 7.724-7.724 7.724z" fill="#4a80aa"/><g><path d="m289.365 150.843c-4.266 0-7.724-3.458-7.724-7.724v-10.138c0-4.266 3.458-7.724 7.724-7.724s7.724 3.458 7.724 7.724v10.138c0 4.266-3.457 7.724-7.724 7.724z" fill="#4a80aa"/></g></g></g><g><path d="m256.167 212.215c-14.94 0-27.095-12.155-27.095-27.095 0-4.266 3.458-7.724 7.724-7.724s7.724 3.458 7.724 7.724c0 6.422 5.225 11.647 11.646 11.647 6.422 0 11.646-5.225 11.646-11.647 0-4.266 3.458-7.724 7.724-7.724s7.724 3.458 7.724 7.724c.002 14.94-12.153 27.095-27.093 27.095z" fill="#ffcebf"/></g></g></svg>